<?xml version="1.0" standalone="no"?>
<!DOCTYPE svg PUBLIC "-//W3C//DTD SVG 20010904//EN"
 "http://www.w3.org/TR/2001/REC-SVG-20010904/DTD/svg10.dtd">
<svg version="1.0" xmlns="http://www.w3.org/2000/svg"
 width="224.000000pt" height="225.000000pt" viewBox="0 0 224.000000 225.000000"
 preserveAspectRatio="xMidYMid meet">

<g transform="translate(0.000000,225.000000) scale(0.100000,-0.100000)"
fill="#3f3f3f" stroke="none">
<path d="M948 2234 c-583 -90 -1003 -637 -940 -1221 53 -487 402 -879 876
-985 110 -24 314 -29 426 -9 351 63 657 293 813 613 271 554 44 1224 -508
1498 -214 106 -436 141 -667 104z m446 -58 c229 -61 442 -204 587 -395 65 -86
153 -265 179 -366 81 -315 31 -619 -147 -888 -48 -72 -139 -177 -154 -177 -5
0 -9 19 -9 43 0 69 -28 166 -72 257 -34 67 -60 103 -128 171 -47 47 -111 100
-142 118 -78 44 -190 81 -268 88 l-65 7 47 12 c117 30 209 103 263 210 28 54
30 67 30 164 0 94 -3 111 -28 165 -37 79 -114 156 -191 192 -54 25 -72 28
-161 28 -88 0 -107 -3 -158 -27 -155 -73 -248 -248 -220 -414 27 -158 131
-272 286 -314 l61 -17 -52 -6 c-82 -10 -213 -60 -290 -110 -182 -122 -300
-320 -318 -537 -4 -44 -10 -80 -14 -80 -16 0 -160 162 -205 229 -174 262 -225
577 -145 886 26 101 114 280 179 366 164 216 403 363 674 415 116 22 339 12
461 -20z"/>
</g>
</svg>
