<?xml version="1.0" standalone="no"?>
<!DOCTYPE svg PUBLIC "-//W3C//DTD SVG 20010904//EN"
 "http://www.w3.org/TR/2001/REC-SVG-20010904/DTD/svg10.dtd">
<svg version="1.0" xmlns="http://www.w3.org/2000/svg"
 width="512.000000pt" height="512.000000pt" viewBox="0 0 512.000000 512.000000"
 preserveAspectRatio="xMidYMid meet">

<g transform="translate(0.000000,512.000000) scale(0.100000,-0.100000)"
fill="#6B53FF" stroke="none">
<path d="M2495 4626 c-16 -8 -239 -224 -495 -480 l-465 -466 -395 0 c-319 0
-407 -3 -453 -15 -173 -45 -307 -178 -352 -350 -23 -88 -23 -1422 0 -1510 45
-172 179 -305 352 -350 46 -12 134 -15 452 -15 l396 0 475 -474 c403 -403 480
-476 510 -481 19 -3 157 -5 307 -3 256 3 273 4 299 24 15 11 37 33 48 48 l21
27 0 1979 0 1979 -21 27 c-11 15 -33 37 -48 48 -26 20 -42 21 -314 23 -227 2
-293 0 -317 -11z m385 -2066 l0 -1760 -128 0 -127 0 -465 466 c-256 256 -474
471 -485 477 -14 9 -150 13 -477 17 -441 5 -457 6 -484 26 -15 11 -37 33 -48
48 -21 27 -21 36 -21 726 0 690 0 699 21 726 11 15 33 37 48 48 27 20 43 21
484 26 327 4 463 8 477 17 11 6 229 221 485 477 l465 466 127 0 128 0 0 -1760z"/>
<path d="M3932 3983 c-81 -40 -112 -133 -70 -213 18 -34 43 -58 109 -102 192
-129 351 -349 433 -602 52 -159 70 -284 70 -496 1 -205 -9 -288 -50 -447 -71
-274 -245 -532 -450 -669 -95 -63 -121 -91 -130 -140 -21 -114 75 -211 189
-190 50 9 175 96 273 189 309 292 470 674 491 1167 17 406 -79 780 -278 1078
-73 110 -212 259 -311 335 -137 104 -204 126 -276 90z"/>
<path d="M3613 3341 c-46 -21 -79 -66 -89 -119 -9 -45 20 -116 58 -144 16 -13
57 -48 89 -78 226 -206 224 -678 -3 -883 -35 -31 -80 -71 -100 -90 -109 -100
-16 -284 134 -264 49 7 130 59 202 131 165 165 256 402 256 666 0 264 -91 501
-256 666 -120 120 -207 154 -291 115z"/>
</g>
</svg>
