<?xml version="1.0" standalone="no"?>
<!DOCTYPE svg PUBLIC "-//W3C//DTD SVG 20010904//EN"
 "http://www.w3.org/TR/2001/REC-SVG-20010904/DTD/svg10.dtd">
<svg version="1.0" xmlns="http://www.w3.org/2000/svg"
 width="512.000000pt" height="512.000000pt" viewBox="0 0 512.000000 512.000000"
 preserveAspectRatio="xMidYMid meet">

<g transform="translate(0.000000,512.000000) scale(0.100000,-0.100000)"
fill="#bdbebd" stroke="none">
<path d="M543 5102 c-72 -26 -127 -66 -163 -120 -64 -97 -60 75 -60 -2403 l0
-2257 -109 -4 c-92 -2 -114 -6 -137 -24 -53 -39 -69 -71 -69 -134 0 -63 16
-95 69 -134 l27 -21 2459 0 2459 0 27 21 c53 39 69 71 69 134 0 63 -16 95 -69
134 -23 18 -45 22 -137 24 l-109 4 -2 1636 -3 1637 -26 56 c-33 71 -87 125
-158 158 l-56 26 -395 0 -395 0 -56 -26 c-71 -33 -125 -87 -158 -158 l-26 -56
-3 -1638 -2 -1637 -160 0 -160 0 -2 998 -3 997 -26 56 c-33 71 -87 125 -158
158 l-56 26 -395 0 -395 0 -56 -26 c-71 -33 -125 -87 -158 -158 l-26 -56 -3
-997 -2 -998 -160 0 -160 0 -2 2278 -3 2277 -26 56 c-33 71 -87 125 -158 158
l-56 26 -380 2 c-346 3 -385 1 -432 -15z m737 -2542 l0 -2240 -320 0 -320 0 0
2240 0 2240 320 0 320 0 0 -2240z m3200 -640 l0 -1600 -320 0 -320 0 0 1600 0
1600 320 0 320 0 0 -1600z m-1600 -640 l0 -960 -320 0 -320 0 0 960 0 960 320
0 320 0 0 -960z"/>
</g>
</svg>
