<?xml version="1.0" standalone="no"?>
<!DOCTYPE svg PUBLIC "-//W3C//DTD SVG 20010904//EN"
 "http://www.w3.org/TR/2001/REC-SVG-20010904/DTD/svg10.dtd">
<svg version="1.0" xmlns="http://www.w3.org/2000/svg"
 width="920.000000pt" height="512.000000pt" viewBox="0 0 920.000000 512.000000"
 preserveAspectRatio="xMidYMid meet">

<g transform="translate(0.000000,512.000000) scale(0.100000,-0.100000)"
fill="#3f3f3f" stroke="none">
<path d="M3390 5105 c-211 -46 -392 -221 -445 -430 -12 -49 -15 -149 -15 -597
l0 -538 195 0 195 0 0 513 c0 474 2 515 19 552 26 57 79 101 141 114 61 13
2760 15 2827 2 53 -10 102 -43 134 -90 l24 -36 0 -2035 0 -2035 -25 -35 c-36
-51 -59 -68 -116 -85 -44 -14 -219 -15 -1455 -13 -1550 3 -1428 -2 -1491 65
-58 61 -58 56 -58 613 l0 510 -195 0 -195 0 0 -538 c0 -592 0 -594 63 -722 46
-94 159 -206 257 -254 142 -69 61 -66 1640 -66 941 0 1447 4 1490 11 37 5 100
27 147 50 147 71 258 197 310 352 l27 82 0 2055 c0 1919 -1 2059 -17 2120 -29
110 -74 188 -157 271 -75 76 -129 110 -240 153 l-55 21 -1470 2 c-1234 1
-1480 -1 -1535 -12z"/>
<path d="M3805 3841 c-28 -12 -61 -50 -76 -86 -9 -21 -14 -117 -17 -317 l-4
-288 -610 0 c-680 0 -646 3 -712 -70 -24 -27 -37 -54 -44 -92 -7 -32 -10 -213
-8 -458 3 -470 2 -464 96 -530 l35 -25 622 -3 621 -3 4 -282 c4 -311 7 -329
67 -380 26 -21 43 -27 82 -27 l50 0 735 636 c404 351 734 640 734 644 0 4
-331 294 -736 645 -690 598 -739 638 -777 641 -23 2 -51 0 -62 -5z"/>
</g>
</svg>
