<?xml version="1.0" standalone="no"?>
<!DOCTYPE svg PUBLIC "-//W3C//DTD SVG 20010904//EN"
 "http://www.w3.org/TR/2001/REC-SVG-20010904/DTD/svg10.dtd">
<svg version="1.0" xmlns="http://www.w3.org/2000/svg"
 width="512.000000pt" height="512.000000pt" viewBox="0 0 512.000000 512.000000"
 preserveAspectRatio="xMidYMid meet">

<g transform="translate(0.000000,512.000000) scale(0.100000,-0.100000)"
fill="#bdbebd" stroke="none">
<path d="M2485 5114 c-16 -2 -68 -9 -115 -15 -131 -18 -182 -41 -232 -104 -48
-62 -66 -71 -161 -84 -157 -22 -391 -193 -537 -393 -194 -264 -295 -631 -271
-976 5 -74 11 -135 13 -136 3 -3 319 -56 330 -56 3 0 0 23 -8 52 -17 66 -37
198 -31 205 3 2 73 -6 156 -18 l150 -23 3 -95 3 -96 415 0 415 0 3 68 3 67 69
0 70 0 0 -70 0 -70 415 0 415 0 0 94 0 94 28 6 c66 14 234 37 238 34 2 -3 -1
-44 -7 -91 -6 -48 -9 -91 -7 -96 2 -4 44 0 93 9 50 10 107 20 128 24 l38 7 -6
52 c-59 509 -170 844 -371 1113 -193 261 -455 420 -789 479 -85 16 -385 28
-450 19z m-204 -689 c266 -196 596 -287 1254 -344 l209 -18 28 -34 c33 -39 65
-138 74 -226 l7 -61 -74 -12 c-41 -6 -96 -15 -124 -20 -27 -4 -53 -6 -57 -3
-5 2 -8 44 -8 94 l0 89 -412 -2 -413 -3 -3 -97 -3 -98 -69 0 -69 0 -3 98 -3
97 -415 0 -415 0 -3 -89 -3 -89 -47 7 c-26 3 -95 13 -154 22 l-108 17 0 32 c0
34 13 45 53 45 95 0 315 97 430 190 126 101 224 254 250 389 6 34 13 61 14 61
2 0 30 -20 64 -45z m239 -795 l0 -160 -320 0 -320 0 0 160 0 160 320 0 320 0
0 -160z m980 0 l0 -160 -320 0 -320 0 0 160 0 160 320 0 320 0 0 -160z"/>
<path d="M700 2774 l0 -595 -59 -54 c-62 -58 -117 -151 -142 -240 -18 -65 -18
-245 0 -310 25 -89 80 -182 142 -240 l59 -54 0 -490 0 -489 28 -6 c15 -3 438
-71 941 -151 l914 -145 916 145 c504 80 928 148 944 151 l27 6 0 510 0 511 41
44 c169 184 168 543 -2 728 l-39 42 0 617 c0 526 -2 616 -14 616 -8 0 -425
-66 -928 -146 -502 -80 -929 -145 -948 -145 -19 0 -444 66 -945 146 -500 80
-915 145 -922 145 -10 0 -13 -119 -13 -596z m1000 268 l795 -127 3 -1363 c2
-1293 1 -1362 -15 -1362 -10 1 -376 58 -813 128 l-795 127 -3 401 -2 401 36 6
c174 28 314 241 314 477 0 236 -136 442 -313 475 l-37 7 0 479 c0 450 1 479
18 479 9 -1 375 -58 812 -128z m2598 -349 l-3 -478 -49 -3 c-133 -8 -260 -126
-317 -292 -30 -89 -36 -232 -15 -324 47 -197 174 -332 333 -352 l53 -6 -2
-396 -3 -396 -795 -128 c-437 -70 -803 -127 -812 -127 -17 -1 -18 70 -18 1362
l0 1362 788 126 c433 70 799 127 815 128 l27 1 -2 -477z"/>
</g>
</svg>
