<?xml version="1.0" standalone="no"?>
<!DOCTYPE svg PUBLIC "-//W3C//DTD SVG 20010904//EN"
 "http://www.w3.org/TR/2001/REC-SVG-20010904/DTD/svg10.dtd">
<svg version="1.0" xmlns="http://www.w3.org/2000/svg"
 width="900.000000pt" height="520.000000pt" viewBox="0 0 900.000000 520.000000"
 preserveAspectRatio="xMidYMid meet">

<g transform="translate(0.000000,520.000000) scale(0.100000,-0.100000)"
fill="#6B53FF" stroke="none">
<path d="M3952 5183 c-118 -58 -119 -221 -2 -280 41 -21 58 -23 217 -23 l173
0 0 -164 0 -164 -72 -7 c-391 -37 -821 -208 -1126 -447 l-64 -50 -98 96 c-84
82 -105 97 -155 111 -195 57 -373 -125 -310 -316 15 -43 36 -72 111 -150 52
-53 94 -99 94 -102 0 -3 -33 -56 -74 -116 -195 -290 -319 -619 -367 -971 -19
-144 -17 -461 5 -600 77 -497 289 -916 640 -1265 198 -197 409 -345 646 -451
1020 -460 2201 -113 2813 826 170 262 283 563 333 890 22 136 24 466 5 600
-53 378 -184 714 -393 1011 l-42 59 106 108 c91 93 109 117 122 162 20 67 20
83 0 149 -39 132 -175 205 -309 166 -50 -14 -71 -29 -160 -116 -56 -54 -104
-99 -107 -99 -3 0 -41 27 -84 61 -310 239 -733 407 -1121 444 l-73 7 0 164 0
164 173 0 c159 0 176 2 217 23 118 59 117 217 0 277 -38 19 -61 20 -552 20
-454 0 -517 -2 -546 -17z m823 -963 c335 -51 621 -171 890 -373 103 -78 284
-259 362 -363 524 -693 524 -1635 0 -2328 -78 -104 -259 -285 -362 -363 -343
-258 -742 -393 -1165 -393 -423 0 -819 134 -1165 393 -101 76 -283 258 -362
363 -524 692 -524 1635 0 2328 78 104 259 285 362 363 417 314 937 449 1440
373z"/>
<path d="M5400 3429 c-14 -5 -218 -203 -455 -438 -427 -426 -430 -429 -478
-435 -78 -9 -145 -57 -185 -130 -23 -43 -23 -169 0 -212 22 -41 72 -90 111
-110 48 -25 139 -30 191 -10 84 32 156 132 156 215 0 20 89 114 434 461 469
469 458 456 442 545 -17 91 -127 149 -216 114z"/>
</g>
</svg>
